<?xml version="1.0" encoding="iso-8859-1"?>
<!-- Generator: Adobe Illustrator 20.0.0, SVG Export Plug-In . SVG Version: 6.00 Build 0)  -->
<svg version="1.1" id="Layer_1_1_" xmlns="http://www.w3.org/2000/svg" xmlns:xlink="http://www.w3.org/1999/xlink" x="0px" y="0px"
	 viewBox="0 0 64 64" style="enable-background:new 0 0 64 64;" xml:space="preserve">
<rect x="30" y="45" width="2" height="2"/>
<rect x="34" y="45" width="2" height="2"/>
<rect x="38" y="45" width="2" height="2"/>
<rect x="6" y="45" width="2" height="2"/>
<rect x="10" y="45" width="2" height="2"/>
<rect x="14" y="45" width="2" height="2"/>
<path d="M57,17h-6V8h1c0.552,0,1-0.447,1-1V5c0-1.654-1.346-3-3-3H40c-1.654,0-3,1.346-3,3v2c0,0.553,0.448,1,1,1h1v9h-6
	c-2.153,0-3.976,1.376-4.679,3.288l-1.333-8.445C26.911,11.358,26.492,11,26,11h-4V8c0-2.206-1.794-4-4-4s-4,1.794-4,4v3h-4
	c-0.492,0-0.911,0.358-0.988,0.844L6.132,30.088C3.789,30.502,2,32.541,2,35v22c0,2.757,2.243,5,5,5h12h8h12
	c1.627,0,3.061-0.793,3.974-2H53v2h2v-2h2c2.757,0,5-2.243,5-5V22C62,19.243,59.757,17,57,17z M39,5c0-0.552,0.449-1,1-1h10
	c0.551,0,1,0.448,1,1v1H39V5z M41,8h8v9h-8V8z M39.623,32.067c0.032,0.007,0.06,0.021,0.091,0.028
	c0.174,0.044,0.345,0.096,0.508,0.171c0.01,0.004,0.019,0.011,0.029,0.016c0.371,0.176,0.71,0.429,0.997,0.756
	c0.003,0.003,0.008,0.004,0.01,0.008C41.714,33.572,42,34.25,42,35v2.92c-3.059-0.441-5.479-2.861-5.92-5.92H39
	C39.213,32,39.421,32.023,39.623,32.067z M41,30.424C40.386,30.154,39.712,30,39,30h-2v-2c0-1.103,0.897-2,2-2s2,0.897,2,2V30.424z
	 M34.059,32c0.463,4.165,3.777,7.478,7.941,7.941v12.118c-4.164,0.463-7.478,3.776-7.941,7.941H28V49v-6V32h1H34.059z M18,32v11v6
	v11h-6.059C11.478,55.835,8.164,52.522,4,52.059V39.941c4.164-0.463,7.478-3.776,7.941-7.941H18z M27.388,27.204L27.83,30H27h-8h-1
	v-1c0-1.654,1.346-3,3-3h4C25.978,26,26.84,26.477,27.388,27.204z M20,32h6v10h-6V32z M20,44h6v4h-6V44z M15,13h6h3.557l-2.25,6
	h-8.614l-2.25-6H15z M16,8c0-1.103,0.897-2,2-2s2,0.897,2,2v3h-4V8z M10.396,15.905l1.668,4.447C12.21,20.741,12.583,21,13,21h10
	c0.417,0,0.79-0.259,0.937-0.648l1.668-4.447l1.34,8.489C26.346,24.14,25.689,24,25,24h-4c-2.757,0-5,2.243-5,5v1H8.17
	L10.396,15.905z M7,32h2.92C9.479,35.059,7.059,37.479,4,37.92V35C4,33.346,5.346,32,7,32z M4,57v-2.92
	c3.059,0.441,5.479,2.861,5.92,5.92H7C5.346,60,4,58.654,4,57z M20,60V50h6v10H20z M39,60h-2.92c0.441-3.059,2.861-5.479,5.92-5.92
	V57c0,0.248-0.036,0.492-0.101,0.733c-0.006,0.025-0.016,0.049-0.023,0.075c-0.07,0.234-0.164,0.465-0.295,0.69
	c-0.005,0.008-0.006,0.018-0.011,0.026C41.047,59.403,40.096,60,39,60z M60,55c0,1.654-1.346,3-3,3H43.899
	C43.965,57.677,44,57.342,44,57V35c0-1.116-0.38-2.136-1-2.969V28c0-2.206-1.794-4-4-4s-4,1.794-4,4v2h-5v-1v-7c0-1.654,1.346-3,3-3
	h24c1.654,0,3,1.346,3,3V55z"/>
<path d="M51,24c-2.206,0-4,1.794-4,4v20c0,2.206,1.794,4,4,4s4-1.794,4-4V28C55,25.794,53.206,24,51,24z M53,48c0,1.103-0.897,2-2,2
	s-2-0.897-2-2V28c0-1.103,0.897-2,2-2s2,0.897,2,2V48z"/>
<rect x="17" y="15" width="2" height="2"/>
</svg>
