<?xml version="1.0" ?><svg style="enable-background:new 0 0 64 64;" version="1.1" viewBox="0 0 64 64" xml:space="preserve" xmlns="http://www.w3.org/2000/svg" xmlns:xlink="http://www.w3.org/1999/xlink"><style type="text/css">
	.st0{fill:none;stroke:#000000;stroke-width:2;stroke-linecap:round;stroke-linejoin:round;stroke-miterlimit:10;}
	.st1{fill:none;stroke:#000000;stroke-width:2;stroke-linecap:round;stroke-linejoin:round;}
</style><g id="guides"/><g id="_x32_5._checking"/><g id="_x32_4._faucet"/><g id="_x32_3._drink"/><g id="_x32_2._hotel_key"/><g id="_x32_1._rating"/><g id="_x32_0._map"/><g id="_x31_9._wifi"/><g id="_x31_8._swimming_pool"/><g id="_x31_7._booking"/><g id="_x31_6._pasport"/><g id="_x31_5._coffee_cup"/><g id="_x31_4._bathtub"/><g id="_x31_3._bedroom"/><g id="_x31_2._air_conditioner"/><g id="_x31_1._breakfast"/><g id="_x31_0._parking_lot"/><g id="_x39_._room_service"/><g id="_x38_._elevator"/><g id="_x37_._reception"><rect class="st0" height="5" width="56" x="4" y="38"/><rect class="st0" height="15" width="48" x="8" y="43"/><ellipse class="st0" cx="18.5" cy="18.5" rx="3.5" ry="3.5" transform="matrix(0.7071068 -0.7071068 0.7071068 0.7071068 -7.662951 18.5)"/><path class="st0" d="M8,36v2h21v-2v0.5C29,30.7010098,24.2989902,26,18.5,26S8,30.7010098,8,36.5V36z"/><path class="st0" d="M12,34h4.0000019C17.1045704,34,18,34.8954277,18,35.9999962v0.0000076   C18,37.1045723,17.1045704,38,16.0000019,38H12"/><path class="st0" d="M25,34h-4.0000019C19.8954296,34,19,34.8954277,19,35.9999962v0.0000076   C19,37.1045723,19.8954296,38,20.9999981,38H25"/><rect class="st0" height="10" width="14" x="42" y="28"/><circle class="st0" cx="49" cy="11" r="5"/><line class="st0" x1="49" x2="49" y1="9" y2="11"/><line class="st0" x1="48" x2="49" y1="11" y2="11"/></g><g id="_x36_._relax"/><g id="_x35_._car_rental"/><g id="_x34_._rental"/><g id="_x33_._smoking_area"/><g id="_x32_._exercise"/><g id="_x31_._luggage"/></svg>