<?xml version="1.0" ?><svg id="Icons_BabyCrawling" overflow="hidden" version="1.1" viewBox="0 0 96 96" xmlns="http://www.w3.org/2000/svg" xmlns:xlink="http://www.w3.org/1999/xlink"><circle cx="75.5" cy="34.5" r="12.5"/><path d=" M 18 59 C 18 60.6 18.6 62 19.6 63.1 C 17.2 61.9 16 59.8 16 56 C 16 48.6 22.8 47.6 32 47 L 32 60.8 L 30 57 C 28.7 54.4 26.8 53 24 53 C 20.7 53 18 55.7 18 59 Z M 9 71 C 9 73.2 10.8 75 13 75 L 33 75 C 34.5 75 36 74.1 36.6 72.7 C 37.3 71.3 36.9 69.7 36.1 68.5 L 34.7 66 L 33.9 64.5 L 58.2 57.8 L 59.1 62.7 C 59.2 63.5 59.6 64.3 60.2 64.8 L 69.2 73.8 C 70 74.6 71 75 72 75 C 73 75 74 74.6 74.8 73.8 C 76.4 72.2 76.4 69.7 74.8 68.1 L 66.7 60 L 63.9 44.2 C 63.6 42.3 61.9 40.9 60 40.9 L 32 42.9 C 24.2 43.4 12 44.2 12 55.9 C 12 62.2 14.8 65.3 18.7 66.9 L 13 66.9 C 10.8 67 9 68.8 9 71 Z"/></svg>