<?xml version="1.0" ?><svg style="enable-background:new 0 0 64 64;" version="1.1" viewBox="0 0 64 64" xml:space="preserve" xmlns="http://www.w3.org/2000/svg" xmlns:xlink="http://www.w3.org/1999/xlink"><style type="text/css">
	.st0{fill:none;stroke:#000000;stroke-width:2;stroke-linecap:round;stroke-linejoin:round;stroke-miterlimit:10;}
	.st1{fill:none;stroke:#000000;stroke-width:2;stroke-linecap:round;stroke-linejoin:round;}
</style><g id="guides"/><g id="_x32_5._checking"/><g id="_x32_4._faucet"/><g id="_x32_3._drink"/><g id="_x32_2._hotel_key"/><g id="_x32_1._rating"/><g id="_x32_0._map"/><g id="_x31_9._wifi"/><g id="_x31_8._swimming_pool"/><g id="_x31_7._booking"/><g id="_x31_6._pasport"/><g id="_x31_5._coffee_cup"/><g id="_x31_4._bathtub"/><g id="_x31_3._bedroom"/><g id="_x31_2._air_conditioner"/><g id="_x31_1._breakfast"><circle class="st0" cx="32" cy="29" r="17"/><path class="st0" d="M40,25c0,0-2,0-2,2s-2,2-2,2s-5,2-1,6c1.1666679,1.1666679,2.4184036,1.6527786,3.6063385,1.7560768   c3.2408562,0.2818146,5.9592667-2.3092918,6.3223534-5.5420532C45.2466202,28.3832951,44.653286,25,40,25z"/><circle class="st0" cx="40" cy="32" r="1"/><path class="st0" d="M57.1758652,51h-0.0000038c-1.690506,0-3.0023117-1.4751816-2.8047905-3.15411L56,34h4v14.1758652   C60,49.7355919,58.7355919,51,57.1758652,51z"/><path class="st0" d="M60,34V14h-0.0000076C56.1340027,14,53,17.1340027,53,20.9999924v7.3944607   c0,2.2525463,1.1257668,4.3560581,2.9999962,5.6055431L56,34H60z"/><path class="st0" d="M7.0000029,51H6.9999971c-1.6275635,0-2.919405-1.3700638-2.8238311-2.9948196L5,28h4l0.8238344,20.0051804   C9.9194078,49.6299362,8.6275663,51,7.0000029,51z"/><path class="st0" d="M10,22H4v5c0,0.5522842,0.4477153,1,1,1h4c0.5522852,0,1-0.4477158,1-1V22z"/><line class="st0" x1="4" x2="4" y1="22" y2="14"/><line class="st0" x1="7" x2="7" y1="22" y2="14"/><line class="st0" x1="10" x2="10" y1="22" y2="14"/><path class="st0" d="M37.0000038,22H26.9999981C25.8954296,22,25,21.1045704,25,20.0000019v-0.0000038   C25,18.8954296,25.8954296,18,26.9999981,18h10.0000057C38.1045723,18,39,18.8954296,39,19.9999981v0.0000038   C39,21.1045704,38.1045723,22,37.0000038,22z"/><line class="st0" x1="28" x2="32" y1="22" y2="18"/><line class="st0" x1="33" x2="37" y1="22" y2="18"/><polygon class="st0" points="21,30 29,30 29,39  "/></g><g id="_x31_0._parking_lot"/><g id="_x39_._room_service"/><g id="_x38_._elevator"/><g id="_x37_._reception"/><g id="_x36_._relax"/><g id="_x35_._car_rental"/><g id="_x34_._rental"/><g id="_x33_._smoking_area"/><g id="_x32_._exercise"/><g id="_x31_._luggage"/></svg>