<?xml version="1.0" encoding="utf-8"?>
<!-- Generator: Adobe Illustrator 18.0.0, SVG Export Plug-In . SVG Version: 6.00 Build 0)  -->
<!DOCTYPE svg PUBLIC "-//W3C//DTD SVG 1.1//EN" "http://www.w3.org/Graphics/SVG/1.1/DTD/svg11.dtd">
<svg version="1.1" id="Layer_1" xmlns="http://www.w3.org/2000/svg" xmlns:xlink="http://www.w3.org/1999/xlink" x="0px" y="0px"
	 viewBox="0 0 512 512" enable-background="new 0 0 512 512" xml:space="preserve">
<g>
	<g>
		<g>
			<g>
				<path d="M490.3,434.9c-30.7,0-61.5,0-92.2,0c-63.4,0-126.9,0-190.3,0c-53,0-105.9,0-158.9,0c-9.1,0-18.2,0-27.2,0
					c2.5,2.5,5,5,7.5,7.5c0-46.1,0-92.2,0-138.3c0-36.1,0-72.2,0-108.3c-2.5,2.5-5,5-7.5,7.5c30.7,0,61.5,0,92.2,0
					c63.4,0,126.9,0,190.3,0c53,0,105.9,0,158.9,0c9.1,0,18.2,0,27.2,0c-2.5-2.5-5-5-7.5-7.5c0,46.1,0,92.2,0,138.3
					c0,36.1,0,72.2,0,108.3c0,9.7,15,9.7,15,0c0-46.1,0-92.2,0-138.3c0-36.1,0-72.2,0-108.3c0-4.1-3.4-7.5-7.5-7.5
					c-30.7,0-61.5,0-92.2,0c-63.4,0-126.9,0-190.3,0c-53,0-105.9,0-158.9,0c-9.1,0-18.2,0-27.2,0c-4.1,0-7.5,3.4-7.5,7.5
					c0,46.1,0,92.2,0,138.3c0,36.1,0,72.2,0,108.3c0,4.1,3.4,7.5,7.5,7.5c30.7,0,61.5,0,92.2,0c63.4,0,126.9,0,190.3,0
					c53,0,105.9,0,158.9,0c9.1,0,18.2,0,27.2,0C500,449.9,500,434.9,490.3,434.9z"/>
			</g>
		</g>
		<g>
			<g>
				<path d="M490.3,434.9c-30.7,0-61.5,0-92.2,0c-63.4,0-126.9,0-190.3,0c-53,0-105.9,0-158.9,0c-9.1,0-18.2,0-27.2,0
					c2.5,2.5,5,5,7.5,7.5c0-49.8,0-99.7,0-149.5c0-6.4,0-12.7,0-19.1c-2.5,2.5-5,5-7.5,7.5c30.7,0,61.5,0,92.2,0
					c63.4,0,126.9,0,190.3,0c53,0,105.9,0,158.9,0c9.1,0,18.2,0,27.2,0c-2.5-2.5-5-5-7.5-7.5c0,49.8,0,99.7,0,149.5
					c0,6.4,0,12.7,0,19.1c0,9.7,15,9.7,15,0c0-49.8,0-99.7,0-149.5c0-6.4,0-12.7,0-19.1c0-4.1-3.4-7.5-7.5-7.5
					c-30.7,0-61.5,0-92.2,0c-63.4,0-126.9,0-190.3,0c-53,0-105.9,0-158.9,0c-9.1,0-18.2,0-27.2,0c-4.1,0-7.5,3.4-7.5,7.5
					c0,49.8,0,99.7,0,149.5c0,6.4,0,12.7,0,19.1c0,4.1,3.4,7.5,7.5,7.5c30.7,0,61.5,0,92.2,0c63.4,0,126.9,0,190.3,0
					c53,0,105.9,0,158.9,0c9.1,0,18.2,0,27.2,0C500,449.9,500,434.9,490.3,434.9z"/>
			</g>
		</g>
		<g>
			<g>
				<path d="M164.2,195.8c0,46.1,0,92.2,0,138.3c0,36.1,0,72.2,0,108.3c0,9.7,15,9.7,15,0c0-46.1,0-92.2,0-138.3
					c0-36.1,0-72.2,0-108.3C179.2,186.1,164.2,186.1,164.2,195.8L164.2,195.8z"/>
			</g>
		</g>
		<g>
			<g>
				<path d="M490.3,434.9c-40.2,0-80.4,0-120.7,0c-58.4,0-116.9,0-175.3,0c-7.6,0-15.1,0-22.7,0c2.5,2.5,5,5,7.5,7.5
					c0-49.8,0-99.7,0-149.5c0-6.4,0-12.7,0-19.1c-2.5,2.5-5,5-7.5,7.5c40.2,0,80.4,0,120.7,0c58.4,0,116.9,0,175.3,0
					c7.6,0,15.1,0,22.7,0c-2.5-2.5-5-5-7.5-7.5c0,49.8,0,99.7,0,149.5c0,6.4,0,12.7,0,19.1c0,9.7,15,9.7,15,0c0-49.8,0-99.7,0-149.5
					c0-6.4,0-12.7,0-19.1c0-4.1-3.4-7.5-7.5-7.5c-40.2,0-80.4,0-120.7,0c-58.4,0-116.9,0-175.3,0c-7.6,0-15.1,0-22.7,0
					c-4.1,0-7.5,3.4-7.5,7.5c0,49.8,0,99.7,0,149.5c0,6.4,0,12.7,0,19.1c0,4.1,3.4,7.5,7.5,7.5c40.2,0,80.4,0,120.7,0
					c58.4,0,116.9,0,175.3,0c7.6,0,15.1,0,22.7,0C500,449.9,500,434.9,490.3,434.9z"/>
			</g>
		</g>
		<g>
			<g>
				<path d="M323.5,273.8c0,49.8,0,99.7,0,149.5c0,6.4,0,12.7,0,19.1c0,9.7,15,9.7,15,0c0-49.8,0-99.7,0-149.5c0-6.4,0-12.7,0-19.1
					C338.5,264.1,323.5,264.1,323.5,273.8L323.5,273.8z"/>
			</g>
		</g>
		<g>
			<g>
				<path d="M309.3,243.1c14.5,0,29,0,43.5,0c9.7,0,9.7-15,0-15c-14.5,0-29,0-43.5,0C299.6,228.1,299.6,243.1,309.3,243.1
					L309.3,243.1z"/>
			</g>
		</g>
		<g>
			<g>
				<path d="M490.3,266.3c-40.2,0-80.4,0-120.7,0c-58.4,0-116.9,0-175.3,0c-7.6,0-15.1,0-22.7,0c2.5,2.5,5,5,7.5,7.5c0-26,0-52,0-78
					c-2.5,2.5-5,5-7.5,7.5c40.2,0,80.4,0,120.7,0c58.4,0,116.9,0,175.3,0c7.6,0,15.1,0,22.7,0c-2.5-2.5-5-5-7.5-7.5c0,26,0,52,0,78
					c0,9.7,15,9.7,15,0c0-26,0-52,0-78c0-4.1-3.4-7.5-7.5-7.5c-40.2,0-80.4,0-120.7,0c-58.4,0-116.9,0-175.3,0c-7.6,0-15.1,0-22.7,0
					c-4.1,0-7.5,3.4-7.5,7.5c0,26,0,52,0,78c0,4.1,3.4,7.5,7.5,7.5c40.2,0,80.4,0,120.7,0c58.4,0,116.9,0,175.3,0
					c7.6,0,15.1,0,22.7,0C500,281.3,500,266.3,490.3,266.3z"/>
			</g>
		</g>
		<g>
			<g>
				<path d="M143.3,407.4c-31.1,0-62.1,0-93.2,0c2.5,2.5,5,5,7.5,7.5c0-37.9,0-75.7,0-113.6c-2.5,2.5-5,5-7.5,7.5
					c31.1,0,62.1,0,93.2,0c-2.5-2.5-5-5-7.5-7.5c0,37.9,0,75.7,0,113.6c0,9.7,15,9.7,15,0c0-37.9,0-75.7,0-113.6
					c0-4.1-3.4-7.5-7.5-7.5c-31.1,0-62.1,0-93.2,0c-4.1,0-7.5,3.4-7.5,7.5c0,37.9,0,75.7,0,113.6c0,4.1,3.4,7.5,7.5,7.5
					c31.1,0,62.1,0,93.2,0C152.9,422.4,152.9,407.4,143.3,407.4z"/>
			</g>
		</g>
		<g>
			<g>
				<path d="M171.7,434.9c-48.2,0-96.3,0-144.5,0c-1.8,0-3.7,0-5.5,0c2.5,2.5,5,5,7.5,7.5c0-49.8,0-99.7,0-149.5
					c0-6.4,0-12.7,0-19.1c-2.5,2.5-5,5-7.5,7.5c48.2,0,96.3,0,144.5,0c1.8,0,3.7,0,5.5,0c-2.5-2.5-5-5-7.5-7.5
					c0,49.8,0,99.7,0,149.5c0,6.4,0,12.7,0,19.1c0,9.7,15,9.7,15,0c0-49.8,0-99.7,0-149.5c0-6.4,0-12.7,0-19.1
					c0-4.1-3.4-7.5-7.5-7.5c-48.2,0-96.3,0-144.5,0c-1.8,0-3.7,0-5.5,0c-4.1,0-7.5,3.4-7.5,7.5c0,49.8,0,99.7,0,149.5
					c0,6.4,0,12.7,0,19.1c0,4.1,3.4,7.5,7.5,7.5c48.2,0,96.3,0,144.5,0c1.8,0,3.7,0,5.5,0C181.4,449.9,181.4,434.9,171.7,434.9z"/>
			</g>
		</g>
		<g>
			<g>
				<path d="M303.3,379.9c0-14.5,0-29,0-43.5c0-9.7-15-9.7-15,0c0,14.5,0,29,0,43.5C288.3,389.5,303.3,389.5,303.3,379.9
					L303.3,379.9z"/>
			</g>
		</g>
		<g>
			<g>
				<path d="M373.7,379.9c0-14.5,0-29,0-43.5c0-9.7-15-9.7-15,0c0,14.5,0,29,0,43.5C358.7,389.5,373.7,389.5,373.7,379.9
					L373.7,379.9z"/>
			</g>
		</g>
	</g>
	<g>
		<g>
			<path d="M74.1,235.6c-0.5,11.7-17.6,11.7-18.1,0C55.6,224,73.7,224,74.1,235.6c0.4,9.6,15.4,9.7,15,0c-0.5-13.5-10.6-23.5-24-24
				c-13.4-0.5-23.5,11.4-24,24c-0.5,13.4,11.4,23.5,24,24c13.4,0.5,23.5-11.4,24-24C89.5,226,74.5,226,74.1,235.6z"/>
		</g>
	</g>
	<g>
		<g>
			<path d="M137.3,235.6c-0.5,11.7-17.6,11.7-18.1,0C118.7,224,136.8,224,137.3,235.6c0.4,9.6,15.4,9.7,15,0
				c-0.5-13.5-10.6-23.5-24-24c-13.4-0.5-23.5,11.4-24,24c-0.5,13.4,11.4,23.5,24,24c13.4,0.5,23.5-11.4,24-24
				C152.7,226,137.7,226,137.3,235.6z"/>
		</g>
	</g>
	<g>
		<g>
			<g>
				<path d="M44.2,184.7c2.6,5,5.2,10,7.8,14.9c1.2,2.3,3.9,3.7,6.5,3.7c25.4,0,50.9,0,76.3,0c2.5,0,5.3-1.4,6.5-3.7
					c6.6-12.5,13.9-24.5,13.9-39.2c0-9.4,0-18.7,0-28.1c0-4.1-3.4-7.5-7.5-7.5c-34.1,0-68.1,0-102.2,0c-4.1,0-7.5,3.4-7.5,7.5
					C38.1,150,36,168.4,44.2,184.7c4.3,8.7,17.3,1.1,13-7.6c-4.1-8.2-4.1-16.5-4.1-25.4c0-6.5,0-12.9,0-19.4c-2.5,2.5-5,5-7.5,7.5
					c34.1,0,68.1,0,102.2,0c-2.5-2.5-5-5-7.5-7.5c0,9.2,0,18.3,0,27.5c0,12.1-6.5,21.9-11.9,32.2c2.2-1.2,4.3-2.5,6.5-3.7
					c-25.4,0-50.9,0-76.3,0c2.2,1.2,4.3,2.5,6.5,3.7c-2.6-5-5.2-10-7.8-14.9C52.6,168.5,39.7,176.1,44.2,184.7z"/>
			</g>
		</g>
	</g>
	<g>
		<g>
			<path d="M171.7,140.9c-8,0-15.9,0-23.9,0c-9.7,0-9.7,15,0,15c8,0,15.9,0,23.9,0C181.4,155.9,181.4,140.9,171.7,140.9L171.7,140.9
				z"/>
		</g>
	</g>
	<g>
		<g>
			<path d="M45.6,140.9c-8,0-15.9,0-23.9,0c-9.7,0-9.7,15,0,15c8,0,15.9,0,23.9,0C55.3,155.9,55.3,140.9,45.6,140.9L45.6,140.9z"/>
		</g>
	</g>
	<g>
		<g>
			<g>
				<path d="M293.4,91.5c49.5,0,99.1,0,148.6,0c16,0,32,0,48,0c9.7,0,9.7-15,0-15c-49.5,0-99.1,0-148.6,0c-16,0-32,0-48,0
					C283.7,76.5,283.7,91.5,293.4,91.5L293.4,91.5z"/>
			</g>
		</g>
		<g>
			<g>
				<path d="M374.3,131.9c0-20.5,0-41,0-61.4c0-9.7-15-9.7-15,0c0,20.5,0,41,0,61.4C359.3,141.6,374.3,141.6,374.3,131.9
					L374.3,131.9z"/>
			</g>
		</g>
		<g>
			<g>
				<path d="M375.9,148.4c-0.5,11.7-17.6,11.7-18.1,0C357.3,136.8,375.4,136.8,375.9,148.4c0.4,9.6,15.4,9.7,15,0
					c-0.5-13.5-10.6-23.5-24-24c-13.4-0.5-23.5,11.4-24,24c-0.5,13.4,11.4,23.5,24,24c13.4,0.5,23.5-11.4,24-24
					C391.2,138.8,376.2,138.8,375.9,148.4z"/>
			</g>
		</g>
		<g>
			<g>
				<path d="M465.1,131c0-20.5,0-41,0-61.5c0-9.7-15-9.7-15,0c0,20.5,0,41,0,61.5C450.1,140.7,465.1,140.7,465.1,131L465.1,131z"/>
			</g>
		</g>
		<g>
			<g>
				<path d="M466.7,147.5c-0.5,11.7-17.6,11.7-18.1,0C448.1,135.9,466.2,135.9,466.7,147.5c0.4,9.6,15.4,9.7,15,0
					c-0.5-13.5-10.6-23.5-24-24c-13.4-0.5-23.5,11.4-24,24c-0.5,13.4,11.4,23.5,24,24c13.4,0.5,23.5-11.4,24-24
					C482,137.9,467,137.9,466.7,147.5z"/>
			</g>
		</g>
	</g>
</g>
</svg>
