<?xml version="1.0" encoding="utf-8"?>
<!-- Generator: Adobe Illustrator 18.0.0, SVG Export Plug-In . SVG Version: 6.00 Build 0)  -->
<!DOCTYPE svg PUBLIC "-//W3C//DTD SVG 1.1//EN" "http://www.w3.org/Graphics/SVG/1.1/DTD/svg11.dtd">
<svg version="1.1" id="Layer_1" xmlns="http://www.w3.org/2000/svg" xmlns:xlink="http://www.w3.org/1999/xlink" x="0px" y="0px"
	 viewBox="0 0 512 512" enable-background="new 0 0 512 512" xml:space="preserve">
<g>
	<g>
		<g>
			<path d="M132.4,455.4c7.2,3.9,14.3,4.3,22.2,4.3c7.8,0,15.6,0,23.4,0c27.2,0,54.4,0,81.6,0c59.4,0,118.8,0,178.2,0
				c15,0,34.7,3,47-7.4c14.5-12.3,11.1-33.6,11.1-50.6c0-60.1,0-120.2,0-180.3c0-38.5,0-77,0-115.5c0-13,2.2-28.4-5.5-39.7
				c-6.8-10-17.7-13.7-29.3-13.7c-18,0-36,0-53.9,0c-62.6,0-125.2,0-187.8,0c-21,0-42,0-63,0c-4.9,0-9.6-0.1-14.5,0.6
				c-11.9,1.7-21.3,12.1-24.3,23.3c-1.3,4.8-0.9,10.1-0.9,15c0,47.1,0,94.1,0,141.2c0,0.1,0,0.2,0,0.2c0,9.7,15,9.7,15,0
				c0-46.1,0-92.3,0-138.4c0-4-0.1-7.9,0-11.9c0.2-8.4,8.3-15,16.4-15c3.8,0,7.5,0,11.3,0c22.3,0,44.6,0,66.9,0
				c62.3,0,124.7,0,187,0c16.4,0,32.9,0,49.3,0c10.3,0,18.1,6.7,18.1,17.4c0,13.5,0,27.1,0,40.6c0,38.2,0,76.3,0,114.5
				c0,57.6,0,115.2,0,172.8c0,5,0,10.1,0,15.1c0,10.1-7.8,16.9-17.5,16.9c-15.6,0-31.3,0-46.9,0c-62.2,0-124.3,0-186.5,0
				c-20,0-40,0-60,0c-5.6,0-11.2,0-16.8,0c-4.7,0-8.8,0.1-13.1-2.2C131.5,437.8,123.9,450.8,132.4,455.4L132.4,455.4z"/>
		</g>
	</g>
	<g>
		<g>
			<path d="M415.1,297.9c-0.3,44-27.2,84.6-68.3,101c-41.8,16.7-90,5.3-120.6-27.4c-30.4-32.5-37.1-82.3-17.4-122
				c19.9-40.2,62.9-63.4,107.2-60C371.8,193.8,414.8,242.8,415.1,297.9c0.1,9.7,15.1,9.7,15,0c-0.3-45.9-26-88.5-66.7-109.8
				c-41-21.5-92.4-17.5-129.8,9.7c-37.9,27.6-56.3,74-49.5,120.1c6.7,45,40.1,82.6,82.6,97.4c37.4,13,80.3,6,112.2-17.2
				c32-23.3,50.9-60.7,51.1-100.2C430.2,288.2,415.2,288.2,415.1,297.9z"/>
		</g>
	</g>
	<g>
		<g>
			<path d="M383.7,297.9c-0.2,22-9.3,42.4-25.5,57.3c-16.2,15-38.4,21.5-60.1,19.5c-45-4-76.3-49.2-67.4-92.6c8-39,45-64.6,84-61.1
				C353.7,224.5,383.3,259.4,383.7,297.9c0.1,9.7,15.1,9.7,15,0c-0.4-47.7-36.8-86.9-84-91.9c-46.6-4.9-90.4,29.2-99,74.8
				c-8.8,46.7,20.3,92.8,65.7,106c45.9,13.3,94-12.7,111.3-56.3c4.1-10.3,5.8-21.5,5.9-32.5C398.7,288.2,383.7,288.2,383.7,297.9z"
				/>
		</g>
	</g>
	<g>
		<g>
			<path d="M124.3,151.1c36.8,0,73.6,0,110.4,0c63,0,125.9,0,188.9,0c21.6,0,43.2,0,64.7,0c9.7,0,9.7-15,0-15
				c-36.8,0-73.6,0-110.4,0c-63,0-125.9,0-188.9,0c-21.6,0-43.2,0-64.7,0C114.7,136.1,114.7,151.1,124.3,151.1L124.3,151.1z"/>
		</g>
	</g>
	<g>
		<g>
			<path d="M188.8,101.7c-0.4,8.6-12.8,8.6-13.2,0C175.1,93.1,188.4,93.2,188.8,101.7c0.5,9.6,15.5,9.7,15,0
				c-0.6-12.2-9.5-21-21.6-21.6c-12.1-0.6-21.1,10.3-21.6,21.6c-0.6,12.1,10.3,21.1,21.6,21.6c12.1,0.6,21.1-10.3,21.6-21.6
				C204.2,92,189.2,92.1,188.8,101.7z"/>
		</g>
	</g>
	<g>
		<g>
			<path d="M243.8,101.7c-0.4,8.6-12.8,8.6-13.2,0C230.2,93.1,243.4,93.2,243.8,101.7c0.5,9.6,15.5,9.7,15,0
				c-0.6-12.2-9.5-21-21.6-21.6c-12.1-0.6-21.1,10.3-21.6,21.6c-0.6,12.1,10.3,21.1,21.6,21.6c12.1,0.6,21.1-10.3,21.6-21.6
				C259.3,92,244.3,92.1,243.8,101.7z"/>
		</g>
	</g>
	<g>
		<g>
			<path d="M298.9,101.7c-0.4,8.6-12.8,8.6-13.2,0C285.2,93.1,298.5,93.2,298.9,101.7c0.5,9.6,15.5,9.7,15,0
				c-0.6-12.2-9.5-21-21.6-21.6c-12.1-0.6-21.1,10.3-21.6,21.6c-0.6,12.1,10.3,21.1,21.6,21.6c12.1,0.6,21.1-10.3,21.6-21.6
				C314.3,92,299.3,92.1,298.9,101.7z"/>
		</g>
	</g>
	<g>
		<g>
			<g>
				<path d="M162.3,276.7c-46,0-92,0-138,0c-0.2,0-0.5,0-0.7,0c-3.8,0-7.8,3.4-7.5,7.5c3.9,47,7.9,93.9,11.8,140.9
					c1.5,18.4,13.2,32,31.8,34.4c4,0.5,8.3,0.1,12.3,0.1c7.6,0,15.3,0,22.9,0c12,0,25.4,1.6,37.2-1.1c11.8-2.7,20.7-12.5,24.4-23.7
					c1.1-3.5,1.3-7.2,1.6-10.9c3.9-46.6,7.8-93.1,11.7-139.7c0.8-9.6-14.2-9.6-15,0c-3.9,47-7.9,93.9-11.8,140.9
					c-1,12-9.7,19.5-21.6,19.5c-13.9,0-27.9,0-41.8,0c-12.7,0-27.1,2.4-34.4-10.7c-3.4-6-2.7-15.4-3.3-22
					c-3.6-42.6-7.2-85.2-10.7-127.8c-2.5,2.5-5,5-7.5,7.5c46,0,92,0,138,0c0.2,0,0.5,0,0.7,0C172,291.7,172,276.7,162.3,276.7z"/>
			</g>
		</g>
	</g>
	<g>
		<g>
			<path d="M142.6,276.7c-24.5,0-49.1,0-73.6,0c-8.6,0-17.2,0-25.8,0c-3.4,0-2.7-4.4-2.7-6.6c0-2.2-0.7-6.6,2.7-6.6
				c2.6,0,5.3,0,7.9,0c21.9,0,43.8,0,65.7,0c7.9,0,15.8,0,23.7,0c1.9,0,3.9-0.3,4.7,2c0.6,1.9,0.1,4.6,0.1,6.6
				C145.3,274.1,145.4,276.5,142.6,276.7c-9.6,0.6-9.7,15.6,0,15c6.6-0.4,11.6-3.3,15.3-8.8c2.7-4,2.4-9.2,2.4-13.8
				c0-10.6-5.9-20.6-17.7-20.6c-9.2,0-18.3,0-27.5,0c-15.9,0-31.9,0-47.8,0c-5.9,0-11.8,0-17.7,0c-3.2,0-6.6-0.3-9.7,0.4
				c-21.1,4.3-19.1,42.9,3.5,42.9c9.1,0,18.3,0,27.4,0c23.9,0,47.9,0,71.8,0C152.3,291.7,152.3,276.7,142.6,276.7z"/>
		</g>
	</g>
	<g>
		<g>
			<path d="M132.3,248.5c-24.5,0-48.9,0-73.4,0c-2.5,0-7.8,1-8.1-2.7c-0.3-4.9,1.5-5.7,5.7-5.7c13.6,0,27.2,0,40.8,0
				c9.8,0,19.7,0,29.5,0c1.8,0,3.6,0,5.4,0C136.2,240.1,136.2,248.2,132.3,248.5c-9.6,0.6-9.7,15.6,0,15c12.6-0.8,19.8-12,17.3-24.1
				c-1.8-9-9.7-14.3-18.6-14.3c-12.5,0-25.1,0-37.6,0c-12.8,0-25.5,0-38.3,0c-8.8,0-15.7,4.5-18.6,13c-3.8,11,3.7,24.5,15.7,25.3
				c13.3,0.9,26.9,0.1,40.3,0.1c13.3,0,26.6,0,39.9,0C142,263.5,142,248.5,132.3,248.5z"/>
		</g>
	</g>
</g>
</svg>
