<?xml version="1.0" encoding="iso-8859-1"?>
<!-- Generator: Adobe Illustrator 20.0.0, SVG Export Plug-In . SVG Version: 6.00 Build 0)  -->
<svg version="1.1" id="Layer_1_1_" xmlns="http://www.w3.org/2000/svg" xmlns:xlink="http://www.w3.org/1999/xlink" x="0px" y="0px"
	 viewBox="0 0 64 64" style="enable-background:new 0 0 64 64;" xml:space="preserve">
<g id="Guide">
	<g>
	</g>
	<g>
	</g>
	<g>
	</g>
	<g>
	</g>
	<g>
	</g>
	<g>
	</g>
	<g>
	</g>
	<g>
	</g>
	<g>
	</g>
	<g>
	</g>
	<g>
	</g>
	<g>
	</g>
	<g>
	</g>
	<g>
	</g>
	<g>
	</g>
	<g>
	</g>
	<g>
	</g>
	<g>
	</g>
	<g>
	</g>
	<g>
	</g>
	<g>
	</g>
	<g>
	</g>
	<g>
	</g>
	<g>
	</g>
	<g>
	</g>
	<g>
	</g>
	<g>
	</g>
	<g>
	</g>
	<g>
	</g>
	<g>
	</g>
	<g>
	</g>
	<g>
	</g>
	<g>
	</g>
	<g>
	</g>
	<g>
	</g>
	<g>
	</g>
</g>
<path d="M64,37.5c0-1.93-1.57-3.5-3.5-3.5h-6.684C53.928,33.686,54,33.352,54,33V13.274c1.241-1.41,2-3.253,2-5.274
	c0-4.411-3.589-8-8-8c-4.072,0-7.436,3.06-7.931,7H16c-0.404,0-0.77,0.243-0.924,0.617c-0.155,0.374-0.069,0.804,0.217,1.09
	L31,24.414V34H3.5C1.57,34,0,35.57,0,37.5S1.57,41,3.5,41h5.17c-0.146,0.378-0.221,0.785-0.21,1.205
	c0.021,0.865,0.387,1.661,1.023,2.236l17.693,16.241C28.102,61.532,29.303,62,30.558,62H49v2h2V50c0-1.654,1.346-3,3-3h10v-2H54
	c-2.414,0-4.434,1.721-4.899,4h-1.424l-3.2-8H60.5C62.43,41,64,39.43,64,37.5z M50,33V21c0-1.654-1.346-3-3-3s-3,1.346-3,3v4
	c0,0.552-0.448,1-1,1s-1-0.448-1-1v-9.586l1.1-1.1C44.496,15.403,46.197,16,48,16c1.458,0,2.822-0.398,4-1.082V33
	c0,0.552-0.448,1-1,1S50,33.552,50,33z M49,10.414l2.471,2.471C50.749,13.4,49.909,13.756,49,13.91V10.414z M52.885,11.471L50.414,9
	h3.496C53.756,9.909,53.4,10.749,52.885,11.471z M50.414,7l2.471-2.471C53.4,5.251,53.756,6.091,53.91,7H50.414z M49,5.586V2.09
	c0.909,0.154,1.749,0.51,2.471,1.025L49,5.586z M47,5.586l-2.471-2.471C45.251,2.6,46.091,2.244,47,2.09V5.586z M47,13.911
	c-0.895-0.149-1.736-0.496-2.474-1.023L47,10.414V13.911z M43.115,4.529L45.586,7H42.09C42.244,6.091,42.6,5.251,43.115,4.529z
	 M45.586,9L32,22.586L18.414,9H45.586z M33,24.414l7-7V25c0,1.654,1.346,3,3,3s3-1.346,3-3v-4c0-0.552,0.448-1,1-1s1,0.448,1,1v12
	c0,0.352,0.072,0.686,0.184,1H33V24.414z M2,37.5C2,36.673,2.673,36,3.5,36h57c0.827,0,1.5,0.673,1.5,1.5S61.327,39,60.5,39H43h-4
	H3.5C2.673,39,2,38.327,2,37.5z M21.728,47.079l-1.635-4.472c-0.133-0.311-0.123-0.648,0.026-0.951
	c0.15-0.303,0.414-0.515,0.742-0.597c0.489-0.123,1.007,0.099,1.248,0.52l3.906,7.186l-0.012,0.159l0.103,0.008l2.249,4.138
	L21.728,47.079z M30.311,41.317c0.195,0.206,0.295,0.475,0.281,0.757l-0.498,10.005l-2.039-3.751l0.494-6.384
	C28.59,41.415,29.038,41,29.569,41C29.853,41,30.115,41.113,30.311,41.317z M26.555,41.79l-0.256,3.307L24.071,41h2.667
	C26.647,41.251,26.576,41.512,26.555,41.79z M32.414,41H38v8.382l-5.916,2.958l0.506-10.167C32.61,41.766,32.547,41.37,32.414,41z
	 M18.242,41c-0.308,0.769-0.318,1.621-0.007,2.343l0.315,0.863L15.003,41H18.242z M46.071,50.371C46.224,50.751,46.591,51,47,51h2v9
	H30.558c-0.753,0-1.474-0.28-2.029-0.79L10.83,42.964c-0.231-0.21-0.363-0.497-0.371-0.809s0.109-0.604,0.33-0.825
	c0.423-0.421,1.102-0.439,1.54-0.051l7.691,6.952l0.041,0.112l0.059-0.021l8.21,7.421c0.307,0.276,0.751,0.337,1.118,0.152l10-5
	C39.786,50.725,40,50.379,40,50v-9h2.323L46.071,50.371z"/>
<path d="M33,14c0-1.654-1.346-3-3-3s-3,1.346-3,3s1.346,3,3,3S33,15.654,33,14z M30,15c-0.552,0-1-0.448-1-1s0.448-1,1-1
	s1,0.448,1,1S30.552,15,30,15z"/>
<path d="M14,5c0-0.553-0.447-1-1-1c-1.654,0-3-1.346-3-3c0-0.553-0.447-1-1-1S8,0.447,8,1c0,1.654-1.346,3-3,3C4.447,4,4,4.447,4,5
	s0.447,1,1,1c1.654,0,3,1.346,3,3c0,0.553,0.447,1,1,1s1-0.447,1-1c0-1.654,1.346-3,3-3C13.553,6,14,5.553,14,5z M9,6.003
	C8.715,5.623,8.377,5.285,7.997,5C8.377,4.715,8.715,4.377,9,3.997C9.285,4.377,9.623,4.715,10.003,5
	C9.623,5.285,9.285,5.623,9,6.003z"/>
<rect x="11" y="20" width="2" height="2"/>
<rect x="15" y="20" width="2" height="2"/>
<rect x="15" y="24" width="2" height="2"/>
<rect x="15" y="16" width="2" height="2"/>
<rect x="19" y="20" width="2" height="2"/>
</svg>
